<svg xmlns="http://www.w3.org/2000/svg" style="display: none;">
    <!-- Facebook Icon -->
    <symbol id="icon-facebook" viewBox="0 0 24 24">
        <path
            d="M22 12c0-5.52-4.48-10-10-10S2 6.48 2 12c0 4.84 3.44 8.84 7.95 9.8v-6.91h-2.4v-2.89h2.4v-2.2c0-2.37 1.43-3.68 3.6-3.68 1.04 0 2.13.18 2.13.18v2.35h-1.2c-1.18 0-1.55.73-1.55 1.47v1.88h2.66l-.43 2.89h-2.23v6.91C18.56 20.84 22 16.84 22 12z" />
    </symbol>

    <!-- Blue Sky -->
    <symbol id="icon-bluesky" viewBox="0 0 24 24">
        <circle cx="12" cy="12" r="10" fill="#00aaff" />
        <text x="12" y="16" font-family="Arial, sans-serif" font-size="8" text-anchor="middle"
            fill="#ffffff">B</text>
    </symbol>

    <!-- Twitter Icon -->
    <symbol id="icon-twitter" viewBox="0 0 24 24">
        <path
            d="M22.46 6c-.77.35-1.5.58-2.29.69.82-.5 1.47-1.28 1.76-2.22-.77.46-1.61.8-2.51.99C18.84 4.57 17.82 4 16.69 4c-2.24 0-4.06 1.82-4.06 4.06 0 .32.04.63.11.93C8.07 8.8 4.9 6.93 2.95 4.27c-.35.6-.55 1.3-.55 2.06 0 1.42.72 2.67 1.81 3.41-.67-.02-1.3-.2-1.85-.51v.05c0 1.98 1.4 3.63 3.26 4-.34.09-.69.14-1.05.14-.26 0-.5-.03-.75-.07.5 1.55 1.95 2.68 3.67 2.72-1.35 1.06-3.05 1.69-4.9 1.69-.32 0-.64-.02-.95-.06 1.74 1.12 3.81 1.77 6.04 1.77 7.25 0 11.22-6.01 11.22-11.22l-.01-.51C21.11 7.49 21.87 6.8 22.46 6z" />
    </symbol>

    <!-- LinkedIn Icon -->
    <symbol id="icon-linkedin" viewBox="0 0 24 24">
        <path
            d="M19 0h-14c-2.76 0-5 2.24-5 5v14c0 2.76 2.24 5 5 5h14c2.76 0 5-2.24 5-5v-14c0-2.76-2.24-5-5-5zm-11 19h-3v-10h3v10zm-1.5-11.28c-.97 0-1.75-.79-1.75-1.75s.78-1.75 1.75-1.75 1.75.79 1.75 1.75-.78 1.75-1.75 1.75zm13.5 11.28h-3v-5.6c0-1.34-.03-3.07-1.87-3.07-1.87 0-2.16 1.46-2.16 2.97v5.7h-3v-10h2.88v1.36h.04c.4-.75 1.38-1.54 2.84-1.54 3.04 0 3.6 2 3.6 4.59v5.59z" />
    </symbol>

    <!-- tumblr -->
    <symbol id="icon-tumblr" viewBox="0 0 24 24">
        <path
            d="M14.04 2c.02.55 0 1.11 0 1.66-.02.72-.16 1.44-.48 2.09-.28.55-.66 1.07-1.18 1.48-.34.27-.75.43-1.16.5-.13 0-.19.06-.18.19.01.64 0 1.28.01 1.92.01.63-.02 1.26.05 1.88.06.47.26.9.55 1.27.32.42.73.77 1.21 1.04.31.18.64.34.96.5.11.06.17.12.16.26-.02.52-.02 1.04 0 1.56.01.32-.11.44-.43.42-.58-.03-1.15-.06-1.73-.07-.65-.01-1.3-.01-1.96.01-.09 0-.18 0-.27.02-.39.07-.72.24-.97.57-.17.2-.29.44-.38.69-.07.18-.1.38-.11.58-.01.16-.07.22-.23.22h-1.91c-.03 0-.06 0-.1-.01-.16-.03-.22-.07-.22-.24 0-.65-.01-1.31.01-1.96.01-.6.1-1.18.29-1.74.18-.52.43-1 .78-1.42.37-.44.8-.83 1.3-1.14.2-.12.41-.23.62-.34.17-.09.18-.11.19-.3 0-.93.01-1.85 0-2.78 0-.19-.06-.23-.24-.22-.33.01-.65.03-.98.01-.57-.04-1.08-.26-1.5-.62-.34-.29-.6-.65-.79-1.05-.31-.66-.48-1.36-.56-2.08-.06-.52-.1-1.03-.12-1.55-.02-.55-.01-1.1-.01-1.65 0-.22.06-.28.29-.28.49-.01.98-.01 1.47 0 .64 0 .71-.01.78-.67.02-.21.02-.43.04-.65.04-.59.12-1.16.3-1.73.25-.8.68-1.49 1.36-2.01.7-.54 1.49-.82 2.36-.91.54-.06 1.08-.03 1.62-.03.12 0 .24-.01.37-.01h.24z" />
    </symbol>

    <!-- Email Icon -->
    <symbol id="icon-email" viewBox="0 0 24 24">
        <path
            d="M20 4H4c-1.1 0-2 .9-2 2v12c0 1.1.9 2 2 2h16c1.1 0 2-.9 2-2V6c0-1.1-.9-2-2-2zm0 4l-8 5-8-5V6l8 5 8-5v2z" />
    </symbol>

    <!-- SMS Icon -->
    <symbol id="icon-sms" viewBox="0 0 24 24">
        <path
            d="M20 2H4c-1.1 0-2 .9-2 2v16l4-4h14c1.1 0 2-.9 2-2V4c0-1.1-.9-2-2-2zm-2 10H6V9h12v3zm0-4H6V5h12v3z" />
    </symbol>
    <!-- WhatsApp Icon -->
    <symbol id="icon-whatsapp" viewBox="0 0 24 24">
        <path
            d="M16.56 14.94c-.27-.14-1.6-.79-1.85-.88-.25-.09-.43-.14-.61.14-.18.27-.7.88-.86 1.06-.16.18-.32.2-.59.07-.27-.14-1.14-.42-2.17-1.34-.8-.71-1.34-1.58-1.5-1.85-.16-.27-.02-.42.12-.55.12-.12.27-.32.41-.48.14-.16.18-.27.27-.45.09-.18.05-.34-.02-.48-.07-.14-.61-1.47-.84-2.02-.22-.53-.45-.46-.61-.46-.16 0-.34-.02-.52-.02-.18 0-.48.07-.73.34-.27.27-.98.96-1.2 2.34-.23 1.38.45 2.73.52 2.91.07.18 1.36 2.14 3.31 3.01 1.93.87 2.07.57 2.45.53.39-.04 1.26-.45 1.44-.88.18-.43.18-.79.12-.88-.06-.09-.23-.16-.46-.3z" />
    </symbol>
    <!-- Snapchat Icon -->
    <symbol id="icon-snapchat" viewBox="0 0 24 24">
        <path
            d="M12 1c-3.99 0-7.25 3.4-7.25 7.5 0 5.69 6.73 12.38 6.73 12.38s6.77-6.69 6.77-12.38c0-4.1-3.26-7.5-7.25-7.5zm4.55 9.19c-.38.32-.86.61-1.44.89-.45.2-1.01.42-1.51.61-.23.09-.45.18-.68.26-.19.07-.39.14-.58.2-.22.07-.45.12-.68.18-.11.03-.22.06-.33.09-.33.09-.67.16-1.01.22-.19.03-.38.06-.57.08-.24.03-.47.05-.7.06-.23.01-.46.02-.69 0-.39-.02-.77-.07-1.15-.13-.27-.04-.55-.09-.83-.14-.25-.04-.51-.09-.76-.15-.32-.08-.64-.17-.96-.27-.3-.09-.59-.2-.88-.3-.3-.11-.59-.22-.89-.34-.32-.12-.63-.25-.94-.39-.28-.13-.56-.27-.84-.42-.35-.17-.69-.35-1.03-.55-.31-.18-.62-.37-.92-.57l-.28-.17s.15-.16.26-.21c.12-.05.24-.1.36-.16.1-.05.21-.11.31-.18.1-.06.2-.12.29-.19.14-.08.28-.16.42-.25.23-.15.46-.3.7-.45.17-.12.34-.23.5-.35.27-.19.54-.38.82-.56.19-.13.38-.25.57-.38.18-.11.36-.22.54-.33.12-.07.24-.14.37-.21.21-.11.42-.22.63-.32.2-.1.41-.2.61-.3.19-.09.38-.18.57-.27.16-.07.32-.13.48-.2.2-.07.4-.14.6-.2.12-.04.25-.07.37-.1.21-.05.42-.1.63-.14.17-.03.34-.06.51-.08.33-.04.66-.07.99-.09.09-.01.17-.01.26-.01.01 0 .03 0 .04 0 0 .05 0 .1-.01.15-.07.27-.14.54-.23.81-.09.27-.19.53-.29.8-.04.12-.09.24-.13.36z" />
    </symbol>
    <!-- Signal Icon -->
    <symbol id="icon-signal" viewBox="0 0 24 24">
        <path
            d="M12 0c6.63 0 12 5.37 12 12s-5.37 12-12 12-12-5.37-12-12 5.37-12 12-12zm5.34 15.66c-1.38 1.38-3.23 2.1-5.34 2.1-2.14 0-4.01-.72-5.38-2.14-.17-.17-.23-.41-.16-.65.06-.23.25-.4.48-.43.23-.02.44.07.59.23 1.04 1.04 2.42 1.63 3.87 1.63 1.44 0 2.79-.59 3.83-1.64.17-.17.42-.25.67-.18.25.06.44.23.51.47.07.25-.02.51-.18.68z" />
    </symbol>
    <symbol id="icon-print" viewBox="0 0 24 24">
        <path
            d="M19 8h-1V3H6v5H5c-1.1 0-2 .9-2 2v6h4v4h10v-4h4v-6c0-1.1-.9-2-2-2zm-5 11H10v-4h4v4zm3-10h-1V5h-8v4H7v1h10v-1z" />
    </symbol>
</svg>