<svg xmlns="http://www.w3.org/2000/svg" style="display: none;" class="share-this-icon">
    <!--!Font
    Awesome Free
    6.7.2 by @fontawesome - https://fontawesome.com License - https://fontawesome.com/license/free
    Copyright 2025 Fonticons, Inc.-->

    <!-- Facebook Icon -->
    <symbol id="icon-facebook" viewBox="0 0 320 512">
        <path
            d="M80 299.3V512H196V299.3h86.5l18-97.8H196V166.9c0-51.7 20.3-71.5 72.7-71.5c16.3 0 29.4 .4 37 1.2V7.9C291.4 4 256.4 0 236.2 0C129.3 0 80 50.5 80 159.4v42.1H14v97.8H80z" />
    </symbol>

    <!-- Blue Sky -->
    <symbol id="icon-bluesky" viewBox="0 0 512 512">
        <path
            d="M111.8 62.2C170.2 105.9 233 194.7 256 242.4c23-47.6 85.8-136.4 144.2-180.2c42.1-31.6 110.3-56 110.3 21.8c0 15.5-8.9 130.5-14.1 149.2C478.2 298 412 314.6 353.1 304.5c102.9 17.5 129.1 75.5 72.5 133.5c-107.4 110.2-154.3-27.6-166.3-62.9l0 0c-1.7-4.9-2.6-7.8-3.3-7.8s-1.6 3-3.3 7.8l0 0c-12 35.3-59 173.1-166.3 62.9c-56.5-58-30.4-116 72.5-133.5C100 314.6 33.8 298 15.7 233.1C10.4 214.4 1.5 99.4 1.5 83.9c0-77.8 68.2-53.4 110.3-21.8z" />
    </symbol>

    <!-- Twitter Icon -->
    <symbol id="icon-twitter" viewBox="0 0 512 512">
        <path
            d="M389.2 48h70.6L305.6 224.2 487 464H345L233.7 318.6 106.5 464H35.8L200.7 275.5 26.8 48H172.4L272.9 180.9 389.2 48zM364.4 421.8h39.1L151.1 88h-42L364.4 421.8z" />
    </symbol>

    <!-- tumblr -->
    <symbol id="icon-tumblr" viewBox="0 0 512 512">
        <path
            d="M309.8 480.3c-13.6 14.5-50 31.7-97.4 31.7-120.8 0-147-88.8-147-140.6v-144H17.9c-5.5 0-10-4.5-10-10v-68c0-7.2 4.5-13.6 11.3-16 62-21.8 81.5-76 84.3-117.1 .8-11 6.5-16.3 16.1-16.3h70.9c5.5 0 10 4.5 10 10v115.2h83c5.5 0 10 4.4 10 9.9v81.7c0 5.5-4.5 10-10 10h-83.4V360c0 34.2 23.7 53.6 68 35.8 4.8-1.9 9-3.2 12.7-2.2 3.5 .9 5.8 3.4 7.4 7.9l22 64.3c1.8 5 3.3 10.6-.4 14.5z" />
    </symbol>

    <!-- pinterest -->
    <symbol id="icon-pinterest" viewBox="0 0 512 512">
        <path
            d="M204 6.5C101.4 6.5 0 74.9 0 185.6 0 256 39.6 296 63.6 296c9.9 0 15.6-27.6 15.6-35.4 0-9.3-23.7-29.1-23.7-67.8 0-80.4 61.2-137.4 140.4-137.4 68.1 0 118.5 38.7 118.5 109.8 0 53.1-21.3 152.7-90.3 152.7-24.9 0-46.2-18-46.2-43.8 0-37.8 26.4-74.4 26.4-113.4 0-66.2-93.9-54.2-93.9 25.8 0 16.8 2.1 35.4 9.6 50.7-13.8 59.4-42 147.9-42 209.1 0 18.9 2.7 37.5 4.5 56.4 3.4 3.8 1.7 3.4 6.9 1.5 50.4-69 48.6-82.5 71.4-172.8 12.3 23.4 44.1 36 69.3 36 106.2 0 153.9-103.5 153.9-196.8C384 71.3 298.2 6.5 204 6.5z" />
    </symbol>

    <!-- reddit -->
    <symbol id="icon-reddit" viewBox="0 0 512 512">
        <path
            d="M373 138.6c-25.2 0-46.3-17.5-51.9-41l0 0c-30.6 4.3-54.2 30.7-54.2 62.4l0 .2c47.4 1.8 90.6 15.1 124.9 36.3c12.6-9.7 28.4-15.5 45.5-15.5c41.3 0 74.7 33.4 74.7 74.7c0 29.8-17.4 55.5-42.7 67.5c-2.4 86.8-97 156.6-213.2 156.6S45.5 410.1 43 323.4C17.6 311.5 0 285.7 0 255.7c0-41.3 33.4-74.7 74.7-74.7c17.2 0 33 5.8 45.7 15.6c34-21.1 76.8-34.4 123.7-36.4l0-.3c0-44.3 33.7-80.9 76.8-85.5C325.8 50.2 347.2 32 373 32c29.4 0 53.3 23.9 53.3 53.3s-23.9 53.3-53.3 53.3zM157.5 255.3c-20.9 0-38.9 20.8-40.2 47.9s17.1 38.1 38 38.1s36.6-9.8 37.8-36.9s-14.7-49.1-35.7-49.1zM395 303.1c-1.2-27.1-19.2-47.9-40.2-47.9s-36.9 22-35.7 49.1c1.2 27.1 16.9 36.9 37.8 36.9s39.3-11 38-38.1zm-60.1 70.8c1.5-3.6-1-7.7-4.9-8.1c-23-2.3-47.9-3.6-73.8-3.6s-50.8 1.3-73.8 3.6c-3.9 .4-6.4 4.5-4.9 8.1c12.9 30.8 43.3 52.4 78.7 52.4s65.8-21.6 78.7-52.4z" />
    </symbol>

    <!-- LinkedIn Icon -->
    <symbol id="icon-linkedin" viewBox="0 0 448 512">
        <path
            d="M100.3 448H7.4V148.9h92.9zM53.8 108.1C24.1 108.1 0 83.5 0 53.8a53.8 53.8 0 0 1 107.6 0c0 29.7-24.1 54.3-53.8 54.3zM447.9 448h-92.7V302.4c0-34.7-.7-79.2-48.3-79.2-48.3 0-55.7 37.7-55.7 76.7V448h-92.8V148.9h89.1v40.8h1.3c12.4-23.5 42.7-48.3 87.9-48.3 94 0 111.3 61.9 111.3 142.3V448z" />
    </symbol>

    <!-- Email Icon -->
    <symbol id="icon-email" viewBox="0 0 512 512">
        <path
            d="M48 64C21.5 64 0 85.5 0 112c0 15.1 7.1 29.3 19.2 38.4L236.8 313.6c11.4 8.5 27 8.5 38.4 0L492.8 150.4c12.1-9.1 19.2-23.3 19.2-38.4c0-26.5-21.5-48-48-48L48 64zM0 176L0 384c0 35.3 28.7 64 64 64l384 0c35.3 0 64-28.7 64-64l0-208L294.4 339.2c-22.8 17.1-54 17.1-76.8 0L0 176z" />
    </symbol>

    <!-- SMS Icon -->
    <symbol id="icon-sms" viewBox="0 0 512 512">
        <path
            d="M256 448c141.4 0 256-93.1 256-208S397.4 32 256 32S0 125.1 0 240c0 45.1 17.7 86.8 47.7 120.9c-1.9 24.5-11.4 46.3-21.4 62.9c-5.5 9.2-11.1 16.6-15.2 21.6c-2.1 2.5-3.7 4.4-4.9 5.7c-.6 .6-1 1.1-1.3 1.4l-.3 .3c0 0 0 0 0 0c0 0 0 0 0 0s0 0 0 0s0 0 0 0c-4.6 4.6-5.9 11.4-3.4 17.4c2.5 6 8.3 9.9 14.8 9.9c28.7 0 57.6-8.9 81.6-19.3c22.9-10 42.4-21.9 54.3-30.6c31.8 11.5 67 17.9 104.1 17.9zM96 212.8c0-20.3 16.5-36.8 36.8-36.8l19.2 0c8.8 0 16 7.2 16 16s-7.2 16-16 16l-19.2 0c-2.7 0-4.8 2.2-4.8 4.8c0 1.6 .8 3.1 2.2 4l29.4 19.6c10.3 6.8 16.4 18.3 16.4 30.7c0 20.3-16.5 36.8-36.8 36.8L112 304c-8.8 0-16-7.2-16-16s7.2-16 16-16l27.2 0c2.7 0 4.8-2.2 4.8-4.8c0-1.6-.8-3.1-2.2-4l-29.4-19.6C102.2 236.7 96 225.2 96 212.8zM372.8 176l19.2 0c8.8 0 16 7.2 16 16s-7.2 16-16 16l-19.2 0c-2.7 0-4.8 2.2-4.8 4.8c0 1.6 .8 3.1 2.2 4l29.4 19.6c10.2 6.8 16.4 18.3 16.4 30.7c0 20.3-16.5 36.8-36.8 36.8L352 304c-8.8 0-16-7.2-16-16s7.2-16 16-16l27.2 0c2.7 0 4.8-2.2 4.8-4.8c0-1.6-.8-3.1-2.2-4l-29.4-19.6c-10.2-6.8-16.4-18.3-16.4-30.7c0-20.3 16.5-36.8 36.8-36.8zm-152 6.4L256 229.3l35.2-46.9c4.1-5.5 11.3-7.8 17.9-5.6s10.9 8.3 10.9 15.2l0 96c0 8.8-7.2 16-16 16s-16-7.2-16-16l0-48-19.2 25.6c-3 4-7.8 6.4-12.8 6.4s-9.8-2.4-12.8-6.4L224 240l0 48c0 8.8-7.2 16-16 16s-16-7.2-16-16l0-96c0-6.9 4.4-13 10.9-15.2s13.7 .1 17.9 5.6z" />
    </symbol>

    <!-- WhatsApp Icon -->
    <symbol id="icon-whatsapp" viewBox="0 0 512 512">
        <path
            d="M380.9 97.1C339 55.1 283.2 32 223.9 32c-122.4 0-222 99.6-222 222 0 39.1 10.2 77.3 29.6 111L0 480l117.7-30.9c32.4 17.7 68.9 27 106.1 27h.1c122.3 0 224.1-99.6 224.1-222 0-59.3-25.2-115-67.1-157zm-157 341.6c-33.2 0-65.7-8.9-94-25.7l-6.7-4-69.8 18.3L72 359.2l-4.4-7c-18.5-29.4-28.2-63.3-28.2-98.2 0-101.7 82.8-184.5 184.6-184.5 49.3 0 95.6 19.2 130.4 54.1 34.8 34.9 56.2 81.2 56.1 130.5 0 101.8-84.9 184.6-186.6 184.6zm101.2-138.2c-5.5-2.8-32.8-16.2-37.9-18-5.1-1.9-8.8-2.8-12.5 2.8-3.7 5.6-14.3 18-17.6 21.8-3.2 3.7-6.5 4.2-12 1.4-32.6-16.3-54-29.1-75.5-66-5.7-9.8 5.7-9.1 16.3-30.3 1.8-3.7 .9-6.9-.5-9.7-1.4-2.8-12.5-30.1-17.1-41.2-4.5-10.8-9.1-9.3-12.5-9.5-3.2-.2-6.9-.2-10.6-.2-3.7 0-9.7 1.4-14.8 6.9-5.1 5.6-19.4 19-19.4 46.3 0 27.3 19.9 53.7 22.6 57.4 2.8 3.7 39.1 59.7 94.8 83.8 35.2 15.2 49 16.5 66.6 13.9 10.7-1.6 32.8-13.4 37.4-26.4 4.6-13 4.6-24.1 3.2-26.4-1.3-2.5-5-3.9-10.5-6.6z" />
    </symbol>
    <!-- Snapchat Icon -->
    <symbol id="icon-snapchat" viewBox="0 0 512 512">
        <path
            d="M496.9 366.6c-3.4-9.2-9.8-14.1-17.1-18.2-1.4-.8-2.6-1.5-3.7-1.9-2.2-1.1-4.4-2.2-6.6-3.4-22.8-12.1-40.6-27.3-53-45.4a102.9 102.9 0 0 1 -9.1-16.1c-1.1-3-1-4.7-.2-6.3a10.2 10.2 0 0 1 2.9-3c3.9-2.6 8-5.2 10.7-7 4.9-3.2 8.8-5.7 11.2-7.4 9.4-6.5 15.9-13.5 20-21.3a42.4 42.4 0 0 0 2.1-35.2c-6.2-16.3-21.6-26.4-40.3-26.4a55.5 55.5 0 0 0 -11.7 1.2c-1 .2-2.1 .5-3.1 .7 .2-11.2-.1-22.9-1.1-34.5-3.5-40.8-17.8-62.1-32.7-79.2A130.2 130.2 0 0 0 332.1 36.4C309.5 23.5 283.9 17 256 17S202.6 23.5 180 36.4a129.7 129.7 0 0 0 -33.3 26.8c-14.9 17-29.2 38.4-32.7 79.2-1 11.6-1.2 23.4-1.1 34.5-1-.3-2-.5-3.1-.7a55.5 55.5 0 0 0 -11.7-1.2c-18.7 0-34.1 10.1-40.3 26.4a42.4 42.4 0 0 0 2 35.2c4.1 7.8 10.7 14.7 20 21.3 2.5 1.7 6.4 4.2 11.2 7.4 2.6 1.7 6.5 4.2 10.3 6.7a11.1 11.1 0 0 1 3.3 3.3c.8 1.6 .8 3.4-.4 6.6a102 102 0 0 1 -8.9 15.8c-12.1 17.7-29.4 32.6-51.4 44.6C32.4 348.6 20.2 352.8 15.1 366.7c-3.9 10.5-1.3 22.5 8.5 32.6a49.1 49.1 0 0 0 12.4 9.4 134.3 134.3 0 0 0 30.3 12.1 20 20 0 0 1 6.1 2.7c3.6 3.1 3.1 7.9 7.8 14.8a34.5 34.5 0 0 0 9 9.1c10 6.9 21.3 7.4 33.2 7.8 10.8 .4 23 .9 36.9 5.5 5.8 1.9 11.8 5.6 18.7 9.9C194.8 481 217.7 495 256 495s61.3-14.1 78.1-24.4c6.9-4.2 12.9-7.9 18.5-9.8 13.9-4.6 26.2-5.1 36.9-5.5 11.9-.5 23.2-.9 33.2-7.8a34.6 34.6 0 0 0 10.2-11.2c3.4-5.8 3.3-9.9 6.6-12.8a19 19 0 0 1 5.8-2.6A134.9 134.9 0 0 0 476 408.7a48.3 48.3 0 0 0 13-10.2l.1-.1C498.4 388.5 500.7 376.9 496.9 366.6zm-34 18.3c-20.7 11.5-34.5 10.2-45.3 17.1-9.1 5.9-3.7 18.5-10.3 23.1-8.1 5.6-32.2-.4-63.2 9.9-25.6 8.5-42 32.8-88 32.8s-62-24.3-88.1-32.9c-31-10.3-55.1-4.2-63.2-9.9-6.6-4.6-1.2-17.2-10.3-23.1-10.7-6.9-24.5-5.7-45.3-17.1-13.2-7.3-5.7-11.8-1.3-13.9 75.1-36.4 87.1-92.6 87.7-96.7 .6-5 1.4-9-4.2-14.1-5.4-5-29.2-19.7-35.8-24.3-10.9-7.6-15.7-15.3-12.2-24.6 2.5-6.5 8.5-8.9 14.9-8.9a27.6 27.6 0 0 1 6 .7c12 2.6 23.7 8.6 30.4 10.2a10.7 10.7 0 0 0 2.5 .3c3.6 0 4.9-1.8 4.6-5.9-.8-13.1-2.6-38.7-.6-62.6 2.8-32.9 13.4-49.2 26-63.6 6.1-6.9 34.5-37 88.9-37s82.9 29.9 88.9 36.8c12.6 14.4 23.2 30.7 26 63.6 2.1 23.9 .3 49.5-.6 62.6-.3 4.3 1 5.9 4.6 5.9a10.6 10.6 0 0 0 2.5-.3c6.7-1.6 18.4-7.6 30.4-10.2a27.6 27.6 0 0 1 6-.7c6.4 0 12.4 2.5 14.9 8.9 3.5 9.4-1.2 17-12.2 24.6-6.6 4.6-30.4 19.3-35.8 24.3-5.6 5.1-4.8 9.1-4.2 14.1 .5 4.2 12.5 60.4 87.7 96.7C468.6 373 476.1 377.5 462.9 384.9z" />
    </symbol>
    <!-- Signal Icon -->
    <symbol id="icon-signal" viewBox="0 0 512 512">
        <path
            d="M256 0c13.3 0 26.3 1 39.1 3l-3.7 23.7C279.9 24.9 268 24 256 24s-23.9 .9-35.4 2.7L216.9 3C229.7 1 242.7 0 256 0zm60.8 7.3l-5.7 23.3c23.4 5.7 45.4 14.9 65.4 27.1l12.5-20.5c-22.1-13.4-46.4-23.6-72.2-29.9zm90.5 42.2L393.1 68.8c19.1 14 36 30.9 50.1 50.1l19.4-14.2C447 83.6 428.4 65 407.3 49.5zm67.5 73.6l-20.5 12.5c12.2 20 21.4 42 27.1 65.4l23.3-5.7c-6.3-25.8-16.5-50.1-29.9-72.2zM509 216.9l-23.7 3.7c1.8 11.5 2.7 23.4 2.7 35.4s-.9 23.9-2.7 35.4l23.7 3.7c1.9-12.7 3-25.8 3-39.1s-1-26.3-3-39.1zM454.3 376.5c12.2-20 21.4-42 27.1-65.4l23.3 5.7c-6.3 25.8-16.5 50.1-29.9 72.2l-20.5-12.5zm-11.1 16.6l19.4 14.2c-15.5 21.1-34.1 39.8-55.2 55.2l-14.2-19.4c19.1-14 36-30.9 50.1-50.1zm-66.7 61.2l12.5 20.5c-22.1 13.4-46.4 23.6-72.2 29.9l-5.7-23.3c23.4-5.7 45.4-14.9 65.4-27.1zm-85.1 31l3.7 23.7c-12.7 1.9-25.8 3-39.1 3s-26.3-1-39.1-3l3.7-23.7c11.5 1.8 23.4 2.7 35.4 2.7s23.9-.9 35.4-2.7zm-90.5-3.9l-5.7 23.3c-19.4-4.7-37.9-11.6-55.3-20.5l-24.3 5.7-5.5-23.4 32.8-7.7 7.8 4c15.7 8 32.5 14.3 50.1 18.6zM90 471.3l5.5 23.4-41.6 9.7C26 510.8 1.2 486 7.6 458.2l9.7-41.6L40.7 422 31 463.7c-2.4 10.4 6.9 19.7 17.3 17.3L90 471.3zM45.5 401.8l-23.4-5.5L27.8 372C18.9 354.7 12 336.1 7.3 316.7l23.3-5.7c4.3 17.6 10.6 34.4 18.6 50.1l4 7.8-7.7 32.8zM26.7 291.4L3 295.1C1 282.3 0 269.3 0 256s1-26.3 3-39.1l23.7 3.7C24.9 232.1 24 244 24 256s.9 23.9 2.7 35.4zm3.9-90.5L7.3 195.2c6.3-25.8 16.5-50.1 29.9-72.2l20.5 12.5c-12.2 20-21.4 42-27.1 65.4zm38.3-82.1L49.5 104.7C65 83.6 83.6 65 104.7 49.5l14.2 19.4c-19.1 14-36 30.9-50.1 50.1zm66.7-61.2L123.1 37.2c22.1-13.4 46.4-23.6 72.2-29.9l5.7 23.3c-23.4 5.7-45.4 14.9-65.4 27.1zM464 256c0 114.9-93.1 208-208 208c-36.4 0-70.7-9.4-100.5-25.8c-2.9-1.6-6.2-2.1-9.4-1.4L53.6 458.4l21.6-92.5c.7-3.2 .2-6.5-1.4-9.4C57.4 326.7 48 292.4 48 256C48 141.1 141.1 48 256 48s208 93.1 208 208z" />
    </symbol>
    <symbol id="icon-print" viewBox="0 0 512 512">
        <path
            d="M128 0C92.7 0 64 28.7 64 64l0 96 64 0 0-96 226.7 0L384 93.3l0 66.7 64 0 0-66.7c0-17-6.7-33.3-18.7-45.3L400 18.7C388 6.7 371.7 0 354.7 0L128 0zM384 352l0 32 0 64-256 0 0-64 0-16 0-16 256 0zm64 32l32 0c17.7 0 32-14.3 32-32l0-96c0-35.3-28.7-64-64-64L64 192c-35.3 0-64 28.7-64 64l0 96c0 17.7 14.3 32 32 32l32 0 0 64c0 35.3 28.7 64 64 64l256 0c35.3 0 64-28.7 64-64l0-64zM432 248a24 24 0 1 1 0 48 24 24 0 1 1 0-48z" />
    </symbol>
</svg>